<?xml version="1.0" standalone="no"?>
<!DOCTYPE svg PUBLIC "-//W3C//DTD SVG 20010904//EN"
 "http://www.w3.org/TR/2001/REC-SVG-20010904/DTD/svg10.dtd">
<svg version="1.0" xmlns="http://www.w3.org/2000/svg"
 width="626.000000pt" height="626.000000pt" viewBox="0 0 626.000000 626.000000"
 preserveAspectRatio="xMidYMid meet">

<g transform="translate(0.000000,626.000000) scale(0.100000,-0.100000)"
fill="#000000" stroke="none">
<path d="M2590 5790 c-19 -4 -64 -14 -100 -22 -76 -17 -197 -68 -258 -109 -24
-16 -46 -29 -49 -29 -14 0 -156 -133 -201 -187 -104 -128 -186 -310 -237 -533
-7 -30 -25 -95 -40 -145 -14 -49 -38 -128 -52 -175 -14 -47 -29 -105 -34 -130
-5 -25 -22 -88 -38 -140 -16 -52 -39 -131 -52 -175 -12 -44 -35 -127 -51 -185
-16 -58 -40 -143 -52 -190 -13 -47 -35 -123 -49 -170 -13 -47 -39 -134 -55
-195 -17 -60 -43 -150 -58 -200 -14 -49 -34 -124 -45 -165 -10 -41 -27 -100
-37 -131 -11 -30 -23 -75 -27 -99 -4 -24 -18 -75 -31 -114 -14 -39 -31 -100
-39 -134 -9 -35 -26 -97 -40 -138 -14 -41 -25 -80 -25 -87 0 -6 -13 -57 -29
-112 -68 -232 -124 -432 -162 -580 -11 -44 -31 -109 -43 -145 -13 -36 -27 -85
-31 -109 -4 -24 -20 -82 -36 -129 -88 -259 -51 -472 108 -635 32 -32 72 -65
88 -73 17 -8 46 -23 66 -34 98 -51 37 -50 2118 -50 1627 0 1941 2 2004 14 70
14 101 25 172 63 39 20 163 148 194 199 45 74 75 210 68 309 -7 117 -39 197
-122 314 -41 57 -82 112 -92 122 -10 9 -29 34 -43 54 -14 20 -43 60 -65 88
-22 29 -48 63 -58 77 -9 14 -32 44 -50 67 -17 23 -66 85 -107 139 -79 102
-115 149 -152 200 -19 26 -93 124 -120 159 -11 15 -83 105 -113 141 -14 18
-25 35 -25 38 0 5 73 103 115 153 5 7 24 31 40 53 28 38 50 66 130 166 17 20
37 47 45 60 22 32 72 97 84 109 6 6 40 48 75 95 36 47 86 113 113 147 26 34
48 65 48 69 0 3 8 18 19 32 73 104 151 289 199 477 l36 140 1 220 c0 215 -1
223 -33 350 -29 115 -79 271 -102 316 -4 8 -20 40 -36 70 -67 132 -134 230
-248 363 -53 62 -230 217 -287 251 -18 11 -60 37 -93 58 -34 20 -68 40 -76 43
-8 3 -42 19 -75 35 -91 43 -237 88 -365 111 -110 21 -148 22 -835 24 -396 1
-736 -1 -755 -6z"/>
</g>
</svg>
